<svg width="280" height="70" viewBox="0 0 280 70" fill="none" xmlns="http://www.w3.org/2000/svg">
  <!-- Chicken + Location Pin Icon -->
  <g transform="translate(5, 5)">
    <!-- Location Pin Base -->
    <path d="M20 50C20 40 25 35 30 35C35 35 40 40 40 50C40 60 30 65 30 65C30 65 20 60 20 50Z" fill="#FF6B35"/>
    
    <!-- Chicken Head -->
    <circle cx="30" cy="30" r="8" fill="#FF6B35"/>
    
    <!-- Chicken Comb -->
    <path d="M25 22L30 18L35 22L33 25L27 25Z" fill="#FF6B35"/>
    
    <!-- Chicken Beak -->
    <path d="M35 30L38 32L35 34Z" fill="#FF6B35"/>
    
    <!-- Chicken Eye -->
    <circle cx="32" cy="28" r="1.5" fill="white"/>
    <circle cx="32" cy="28" r="0.8" fill="black"/>
    
    <!-- Chicken Wattle -->
    <ellipse cx="28" cy="38" rx="1.5" ry="2.5" fill="#FF6B35"/>
  </g>
  
  <!-- Brand Name -->
  <text x="55" y="32" font-family="Arial, sans-serif" font-size="26" font-weight="bold" fill="#FF6B35">Chicken Vicken</text>
  
  <!-- Tagline -->
  <text x="55" y="46" font-family="Arial, sans-serif" font-size="13" fill="#FF8A65">Meat lovers' destination</text>
</svg>
